<mxfile host="app.diagrams.net" modified="2023-11-03T21:12:37.476Z" agent="Mozilla/5.0 (Windows NT 10.0; Win64; x64; rv:109.0) Gecko/20100101 Firefox/119.0" etag="BSS31ZzWQCLsjJBzRVYA" version="22.0.8" type="google">
  <diagram id="C5RBs43oDa-KdzZeNtuy" name="Page-1">
    <mxGraphModel grid="1" page="1" gridSize="10" guides="1" tooltips="1" connect="1" arrows="0" fold="1" pageScale="1" pageWidth="827" pageHeight="1169" math="0" shadow="0">
      <root>
        <mxCell id="WIyWlLk6GJQsqaUBKTNV-0" />
        <mxCell id="WIyWlLk6GJQsqaUBKTNV-1" parent="WIyWlLk6GJQsqaUBKTNV-0" />
        <mxCell id="gODOM4BEEqSKBqivk2wQ-3" value="&lt;p style=&quot;margin:0px;margin-top:4px;text-align:center;&quot;&gt;&lt;b&gt;Data Analyst&lt;/b&gt;&lt;/p&gt;&lt;hr size=&quot;1&quot;&gt;&lt;p style=&quot;margin:0px;margin-left:4px;&quot;&gt;+ emp_id: int&lt;/p&gt;&lt;p style=&quot;margin:0px;margin-left:4px;&quot;&gt;- name: String&lt;/p&gt;&lt;hr size=&quot;1&quot;&gt;&lt;p style=&quot;margin:0px;margin-left:4px;&quot;&gt;- query(): Query&lt;/p&gt;&lt;p style=&quot;margin:0px;margin-left:4px;&quot;&gt;- request_change_config(): Config&lt;/p&gt;&lt;p style=&quot;margin:0px;margin-left:4px;&quot;&gt;- retrieve_data(): Output&lt;/p&gt;" style="verticalAlign=top;align=left;overflow=fill;fontSize=12;fontFamily=Helvetica;html=1;whiteSpace=wrap;" vertex="1" parent="WIyWlLk6GJQsqaUBKTNV-1">
          <mxGeometry x="-153.75" y="900" width="230" height="140" as="geometry" />
        </mxCell>
        <mxCell id="gODOM4BEEqSKBqivk2wQ-4" value="&lt;p style=&quot;margin:0px;margin-top:4px;text-align:center;&quot;&gt;&lt;b&gt;Configuration Files&lt;/b&gt;&lt;/p&gt;&lt;hr size=&quot;1&quot;&gt;&lt;p style=&quot;margin:0px;margin-left:4px;&quot;&gt;+ config: Config&lt;/p&gt;&lt;hr size=&quot;1&quot;&gt;&lt;p style=&quot;margin:0px;margin-left:4px;&quot;&gt;&lt;br&gt;&lt;/p&gt;" style="verticalAlign=top;align=left;overflow=fill;fontSize=12;fontFamily=Helvetica;html=1;whiteSpace=wrap;" vertex="1" parent="WIyWlLk6GJQsqaUBKTNV-1">
          <mxGeometry x="-140" y="690" width="202.5" height="100" as="geometry" />
        </mxCell>
        <mxCell id="gODOM4BEEqSKBqivk2wQ-5" value="&lt;p style=&quot;margin:0px;margin-top:4px;text-align:center;&quot;&gt;&lt;b&gt;API Service&lt;/b&gt;&lt;/p&gt;&lt;hr size=&quot;1&quot;&gt;&lt;p style=&quot;margin:0px;margin-left:4px;&quot;&gt;+ api: Api&lt;/p&gt;&lt;hr size=&quot;1&quot;&gt;&lt;p style=&quot;margin:0px;margin-left:4px;&quot;&gt;- query(): Query&lt;/p&gt;" style="verticalAlign=top;align=left;overflow=fill;fontSize=12;fontFamily=Helvetica;html=1;whiteSpace=wrap;" vertex="1" parent="WIyWlLk6GJQsqaUBKTNV-1">
          <mxGeometry x="-128.14000000000001" y="300" width="178.75" height="90" as="geometry" />
        </mxCell>
        <mxCell id="-_xqf_EL86_j3DuYt3mu-1" value="&lt;p style=&quot;margin:0px;margin-top:4px;text-align:center;&quot;&gt;&lt;b&gt;Data Administrator&lt;/b&gt;&lt;/p&gt;&lt;hr size=&quot;1&quot;&gt;&lt;p style=&quot;margin:0px;margin-left:4px;&quot;&gt;+ emp_id: int&lt;/p&gt;&lt;p style=&quot;margin:0px;margin-left:4px;&quot;&gt;- name: String&lt;/p&gt;&lt;hr size=&quot;1&quot;&gt;&lt;p style=&quot;margin:0px;margin-left:4px;&quot;&gt;- backup_database(): Database&lt;/p&gt;&lt;p style=&quot;margin:0px;margin-left:4px;&quot;&gt;&lt;span style=&quot;background-color: initial;&quot;&gt;- add_data_source(): DataSource&lt;/span&gt;&lt;br&gt;&lt;/p&gt;&lt;p style=&quot;margin:0px;margin-left:4px;&quot;&gt;- remove_data_source(): DataSource&lt;/p&gt;&lt;p style=&quot;margin:0px;margin-left:4px;&quot;&gt;- archive_data(): Output&lt;/p&gt;&lt;p style=&quot;margin:0px;margin-left:4px;&quot;&gt;- change_config(): Config&lt;/p&gt;" style="verticalAlign=top;align=left;overflow=fill;fontSize=12;fontFamily=Helvetica;html=1;whiteSpace=wrap;" vertex="1" parent="WIyWlLk6GJQsqaUBKTNV-1">
          <mxGeometry x="290" y="655" width="225" height="170" as="geometry" />
        </mxCell>
        <mxCell id="-_xqf_EL86_j3DuYt3mu-3" value="&lt;p style=&quot;margin:0px;margin-top:4px;text-align:center;&quot;&gt;&lt;b&gt;Data Collection&lt;/b&gt;&lt;/p&gt;&lt;hr size=&quot;1&quot;&gt;&lt;p style=&quot;margin:0px;margin-left:4px;&quot;&gt;+ file_name: String&lt;/p&gt;&lt;hr size=&quot;1&quot;&gt;&lt;p style=&quot;margin:0px;margin-left:4px;&quot;&gt;- query(): Query&lt;/p&gt;&lt;p style=&quot;margin:0px;margin-left:4px;&quot;&gt;- retrieve_data(): Output&lt;/p&gt;" style="verticalAlign=top;align=left;overflow=fill;fontSize=12;fontFamily=Helvetica;html=1;whiteSpace=wrap;" vertex="1" parent="WIyWlLk6GJQsqaUBKTNV-1">
          <mxGeometry x="-118.75" y="500" width="160" height="110" as="geometry" />
        </mxCell>
        <mxCell id="-_xqf_EL86_j3DuYt3mu-4" value="&lt;p style=&quot;margin:0px;margin-top:4px;text-align:center;&quot;&gt;&lt;b&gt;Data Source&lt;/b&gt;&lt;/p&gt;&lt;hr size=&quot;1&quot;&gt;&lt;p style=&quot;margin:0px;margin-left:4px;&quot;&gt;+ url: String&lt;/p&gt;&lt;hr size=&quot;1&quot;&gt;&lt;p style=&quot;margin:0px;margin-left:4px;&quot;&gt;- add_data_source(): DataSource&lt;/p&gt;&lt;p style=&quot;margin:0px;margin-left:4px;&quot;&gt;- remove_data_source(): DataSource&lt;/p&gt;" style="verticalAlign=top;align=left;overflow=fill;fontSize=12;fontFamily=Helvetica;html=1;whiteSpace=wrap;" vertex="1" parent="WIyWlLk6GJQsqaUBKTNV-1">
          <mxGeometry x="-470" y="290" width="240" height="110" as="geometry" />
        </mxCell>
        <mxCell id="t2NUlBoEFJgihDbQPyKd-9" value="ATS Class Diagram" style="shape=umlFrame;whiteSpace=wrap;html=1;pointerEvents=0;recursiveResize=0;container=1;collapsible=0;width=160;" vertex="1" parent="WIyWlLk6GJQsqaUBKTNV-1">
          <mxGeometry x="-530" y="100" width="1500" height="1000" as="geometry" />
        </mxCell>
        <mxCell id="-_xqf_EL86_j3DuYt3mu-0" value="&lt;p style=&quot;margin:0px;margin-top:4px;text-align:center;&quot;&gt;&lt;b&gt;IONOS&lt;/b&gt;&lt;/p&gt;&lt;hr size=&quot;1&quot;&gt;&lt;p style=&quot;margin:0px;margin-left:4px;&quot;&gt;+ server: Server&lt;/p&gt;&lt;hr size=&quot;1&quot;&gt;&lt;p style=&quot;margin:0px;margin-left:4px;&quot;&gt;+ hosts(): Server&lt;/p&gt;" style="verticalAlign=top;align=left;overflow=fill;fontSize=12;fontFamily=Helvetica;html=1;whiteSpace=wrap;" vertex="1" parent="t2NUlBoEFJgihDbQPyKd-9">
          <mxGeometry x="1000" y="20" width="160" height="90" as="geometry" />
        </mxCell>
        <mxCell id="-_xqf_EL86_j3DuYt3mu-5" value="&lt;p style=&quot;margin:0px;margin-top:4px;text-align:center;&quot;&gt;&lt;b&gt;Data Warehouse&lt;/b&gt;&lt;/p&gt;&lt;hr size=&quot;1&quot;&gt;&lt;p style=&quot;margin:0px;margin-left:4px;&quot;&gt;+ warehouse: Warehouse&lt;/p&gt;&lt;hr size=&quot;1&quot;&gt;&lt;p style=&quot;margin:0px;margin-left:4px;&quot;&gt;- retrieve_data(): Output&lt;/p&gt;" style="verticalAlign=top;align=left;overflow=fill;fontSize=12;fontFamily=Helvetica;html=1;whiteSpace=wrap;" vertex="1" parent="t2NUlBoEFJgihDbQPyKd-9">
          <mxGeometry x="1130" y="187.5" width="160" height="120" as="geometry" />
        </mxCell>
        <mxCell id="t2NUlBoEFJgihDbQPyKd-25" value="" style="endArrow=block;html=1;rounded=0;align=center;verticalAlign=bottom;endFill=0;labelBackgroundColor=none;endSize=8;entryX=0.5;entryY=1;entryDx=0;entryDy=0;exitX=0.5;exitY=0;exitDx=0;exitDy=0;" edge="1" parent="t2NUlBoEFJgihDbQPyKd-9" source="-_xqf_EL86_j3DuYt3mu-5" target="-_xqf_EL86_j3DuYt3mu-0">
          <mxGeometry relative="1" as="geometry">
            <mxPoint x="1362" y="548" as="sourcePoint" />
            <mxPoint x="1440" y="395" as="targetPoint" />
            <Array as="points">
              <mxPoint x="1210" y="150" />
              <mxPoint x="1080" y="150" />
            </Array>
          </mxGeometry>
        </mxCell>
        <mxCell id="t2NUlBoEFJgihDbQPyKd-26" value="" style="resizable=0;html=1;align=center;verticalAlign=top;labelBackgroundColor=none;" connectable="0" vertex="1" parent="t2NUlBoEFJgihDbQPyKd-25">
          <mxGeometry relative="1" as="geometry" />
        </mxCell>
        <mxCell id="-_xqf_EL86_j3DuYt3mu-6" value="&lt;p style=&quot;margin:0px;margin-top:4px;text-align:center;&quot;&gt;&lt;b&gt;Database&lt;/b&gt;&lt;/p&gt;&lt;hr size=&quot;1&quot;&gt;&lt;p style=&quot;margin:0px;margin-left:4px;&quot;&gt;+ database: Database&lt;/p&gt;&lt;hr size=&quot;1&quot;&gt;&lt;p style=&quot;margin:0px;margin-left:4px;&quot;&gt;- retrieve_data(): Output&lt;/p&gt;&lt;p style=&quot;margin:0px;margin-left:4px;&quot;&gt;&lt;span style=&quot;background-color: initial;&quot;&gt;- backup_database(): Database&lt;/span&gt;&lt;br&gt;&lt;/p&gt;&lt;p style=&quot;margin:0px;margin-left:4px;&quot;&gt;&lt;br&gt;&lt;/p&gt;" style="verticalAlign=top;align=left;overflow=fill;fontSize=12;fontFamily=Helvetica;html=1;whiteSpace=wrap;" vertex="1" parent="t2NUlBoEFJgihDbQPyKd-9">
          <mxGeometry x="870" y="200" width="202.5" height="125" as="geometry" />
        </mxCell>
        <mxCell id="t2NUlBoEFJgihDbQPyKd-10" value="" style="endArrow=block;html=1;rounded=0;align=center;verticalAlign=bottom;endFill=0;labelBackgroundColor=none;endSize=8;entryX=0.5;entryY=1;entryDx=0;entryDy=0;exitX=0.5;exitY=0;exitDx=0;exitDy=0;" edge="1" parent="t2NUlBoEFJgihDbQPyKd-9" source="-_xqf_EL86_j3DuYt3mu-6" target="-_xqf_EL86_j3DuYt3mu-0">
          <mxGeometry relative="1" as="geometry">
            <mxPoint x="1350" y="540" as="sourcePoint" />
            <mxPoint x="1280" y="450" as="targetPoint" />
            <Array as="points">
              <mxPoint x="970" y="150" />
              <mxPoint x="1080" y="150" />
            </Array>
          </mxGeometry>
        </mxCell>
        <mxCell id="t2NUlBoEFJgihDbQPyKd-11" value="" style="resizable=0;html=1;align=center;verticalAlign=top;labelBackgroundColor=none;" connectable="0" vertex="1" parent="t2NUlBoEFJgihDbQPyKd-10">
          <mxGeometry relative="1" as="geometry" />
        </mxCell>
        <mxCell id="zspc7C395FXqzY0Dl9mE-15" value="Hosted By" style="edgeLabel;html=1;align=center;verticalAlign=middle;resizable=0;points=[];" connectable="0" vertex="1" parent="t2NUlBoEFJgihDbQPyKd-10">
          <mxGeometry x="0.2961" relative="1" as="geometry">
            <mxPoint x="26" as="offset" />
          </mxGeometry>
        </mxCell>
        <mxCell id="zspc7C395FXqzY0Dl9mE-9" value="&lt;p style=&quot;margin:0px;margin-top:4px;text-align:center;&quot;&gt;&lt;b&gt;Data Processing&lt;/b&gt;&lt;/p&gt;&lt;hr size=&quot;1&quot;&gt;&lt;p style=&quot;margin:0px;margin-left:4px;&quot;&gt;+ file_name: String&lt;/p&gt;&lt;hr size=&quot;1&quot;&gt;&lt;p style=&quot;margin:0px;margin-left:4px;&quot;&gt;- read_data(): Input&lt;/p&gt;&lt;p style=&quot;margin:0px;margin-left:4px;&quot;&gt;&lt;span style=&quot;background-color: initial;&quot;&gt;- sql_queries(): Output&lt;/span&gt;&lt;br&gt;&lt;/p&gt;&lt;p style=&quot;margin:0px;margin-left:4px;&quot;&gt;&lt;br&gt;&lt;/p&gt;" style="verticalAlign=top;align=left;overflow=fill;fontSize=12;fontFamily=Helvetica;html=1;whiteSpace=wrap;" vertex="1" parent="t2NUlBoEFJgihDbQPyKd-9">
          <mxGeometry x="1010" y="400" width="202.5" height="125" as="geometry" />
        </mxCell>
        <mxCell id="zspc7C395FXqzY0Dl9mE-11" value="" style="endArrow=open;startArrow=none;endFill=0;startFill=0;endSize=8;html=1;verticalAlign=bottom;labelBackgroundColor=none;strokeWidth=1;rounded=0;exitX=0.75;exitY=1;exitDx=0;exitDy=0;entryX=0.25;entryY=0;entryDx=0;entryDy=0;" edge="1" parent="t2NUlBoEFJgihDbQPyKd-9" source="-_xqf_EL86_j3DuYt3mu-6" target="zspc7C395FXqzY0Dl9mE-9">
          <mxGeometry width="160" relative="1" as="geometry">
            <mxPoint x="1020" y="330" as="sourcePoint" />
            <mxPoint x="1180" y="330" as="targetPoint" />
            <Array as="points">
              <mxPoint x="1022" y="360" />
              <mxPoint x="1060" y="360" />
            </Array>
          </mxGeometry>
        </mxCell>
        <mxCell id="zspc7C395FXqzY0Dl9mE-12" value="Processes" style="edgeLabel;html=1;align=center;verticalAlign=middle;resizable=0;points=[];" connectable="0" vertex="1" parent="zspc7C395FXqzY0Dl9mE-11">
          <mxGeometry x="-0.0359" y="1" relative="1" as="geometry">
            <mxPoint x="-14" y="-19" as="offset" />
          </mxGeometry>
        </mxCell>
        <mxCell id="zspc7C395FXqzY0Dl9mE-13" value="" style="endArrow=open;startArrow=none;endFill=0;startFill=0;endSize=8;html=1;verticalAlign=bottom;labelBackgroundColor=none;strokeWidth=1;rounded=0;exitX=0.75;exitY=0;exitDx=0;exitDy=0;entryX=0.5;entryY=1;entryDx=0;entryDy=0;" edge="1" parent="t2NUlBoEFJgihDbQPyKd-9" source="zspc7C395FXqzY0Dl9mE-9" target="-_xqf_EL86_j3DuYt3mu-5">
          <mxGeometry width="160" relative="1" as="geometry">
            <mxPoint x="1020" y="330" as="sourcePoint" />
            <mxPoint x="1180" y="330" as="targetPoint" />
            <Array as="points">
              <mxPoint x="1160" y="360" />
              <mxPoint x="1210" y="360" />
            </Array>
          </mxGeometry>
        </mxCell>
        <mxCell id="zspc7C395FXqzY0Dl9mE-14" value="Stores" style="edgeLabel;html=1;align=center;verticalAlign=middle;resizable=0;points=[];" connectable="0" vertex="1" parent="zspc7C395FXqzY0Dl9mE-13">
          <mxGeometry x="0.1931" y="-1" relative="1" as="geometry">
            <mxPoint x="-45" y="19" as="offset" />
          </mxGeometry>
        </mxCell>
        <mxCell id="t2NUlBoEFJgihDbQPyKd-15" value="" style="endArrow=open;startArrow=none;endFill=0;startFill=0;endSize=8;html=1;verticalAlign=bottom;labelBackgroundColor=none;strokeWidth=1;rounded=0;exitX=1;exitY=0.5;exitDx=0;exitDy=0;entryX=0.5;entryY=1;entryDx=0;entryDy=0;" edge="1" parent="WIyWlLk6GJQsqaUBKTNV-1" source="gODOM4BEEqSKBqivk2wQ-3" target="-_xqf_EL86_j3DuYt3mu-1">
          <mxGeometry width="160" relative="1" as="geometry">
            <mxPoint x="190" y="800" as="sourcePoint" />
            <mxPoint x="350" y="800" as="targetPoint" />
            <Array as="points">
              <mxPoint x="403" y="970" />
            </Array>
          </mxGeometry>
        </mxCell>
        <mxCell id="zspc7C395FXqzY0Dl9mE-6" value="Requests" style="edgeLabel;html=1;align=center;verticalAlign=middle;resizable=0;points=[];" connectable="0" vertex="1" parent="t2NUlBoEFJgihDbQPyKd-15">
          <mxGeometry x="-0.2083" y="-1" relative="1" as="geometry">
            <mxPoint x="-33" y="-1" as="offset" />
          </mxGeometry>
        </mxCell>
        <mxCell id="t2NUlBoEFJgihDbQPyKd-16" value="" style="endArrow=open;startArrow=none;endFill=0;startFill=0;endSize=8;html=1;verticalAlign=bottom;labelBackgroundColor=none;strokeWidth=1;rounded=0;exitX=0.5;exitY=0;exitDx=0;exitDy=0;entryX=0.5;entryY=1;entryDx=0;entryDy=0;" edge="1" parent="WIyWlLk6GJQsqaUBKTNV-1" source="gODOM4BEEqSKBqivk2wQ-3" target="gODOM4BEEqSKBqivk2wQ-4">
          <mxGeometry width="160" relative="1" as="geometry">
            <mxPoint x="190" y="800" as="sourcePoint" />
            <mxPoint x="350" y="800" as="targetPoint" />
          </mxGeometry>
        </mxCell>
        <mxCell id="zspc7C395FXqzY0Dl9mE-5" value="Runs" style="edgeLabel;html=1;align=center;verticalAlign=middle;resizable=0;points=[];" connectable="0" vertex="1" parent="t2NUlBoEFJgihDbQPyKd-16">
          <mxGeometry x="-0.0364" y="-2" relative="1" as="geometry">
            <mxPoint as="offset" />
          </mxGeometry>
        </mxCell>
        <mxCell id="t2NUlBoEFJgihDbQPyKd-17" value="" style="endArrow=none;startArrow=open;endFill=0;startFill=0;endSize=8;html=1;verticalAlign=bottom;labelBackgroundColor=none;strokeWidth=1;rounded=0;exitX=1;exitY=0.5;exitDx=0;exitDy=0;entryX=0;entryY=0.5;entryDx=0;entryDy=0;" edge="1" parent="WIyWlLk6GJQsqaUBKTNV-1" source="gODOM4BEEqSKBqivk2wQ-4" target="-_xqf_EL86_j3DuYt3mu-1">
          <mxGeometry width="160" relative="1" as="geometry">
            <mxPoint x="190" y="800" as="sourcePoint" />
            <mxPoint x="350" y="800" as="targetPoint" />
          </mxGeometry>
        </mxCell>
        <mxCell id="zspc7C395FXqzY0Dl9mE-4" value="Configures" style="edgeLabel;html=1;align=center;verticalAlign=middle;resizable=0;points=[];" connectable="0" vertex="1" parent="t2NUlBoEFJgihDbQPyKd-17">
          <mxGeometry x="-0.2659" y="1" relative="1" as="geometry">
            <mxPoint x="34" as="offset" />
          </mxGeometry>
        </mxCell>
        <mxCell id="t2NUlBoEFJgihDbQPyKd-18" value="" style="endArrow=open;startArrow=none;endFill=0;startFill=0;endSize=8;html=1;verticalAlign=bottom;labelBackgroundColor=none;strokeWidth=1;rounded=0;exitX=0.5;exitY=0;exitDx=0;exitDy=0;entryX=0.5;entryY=1;entryDx=0;entryDy=0;" edge="1" parent="WIyWlLk6GJQsqaUBKTNV-1" source="gODOM4BEEqSKBqivk2wQ-4" target="-_xqf_EL86_j3DuYt3mu-3">
          <mxGeometry width="160" relative="1" as="geometry">
            <mxPoint x="190" y="720" as="sourcePoint" />
            <mxPoint x="350" y="720" as="targetPoint" />
          </mxGeometry>
        </mxCell>
        <mxCell id="zspc7C395FXqzY0Dl9mE-2" value="Queries" style="edgeLabel;html=1;align=center;verticalAlign=middle;resizable=0;points=[];" connectable="0" vertex="1" parent="t2NUlBoEFJgihDbQPyKd-18">
          <mxGeometry x="0.05" y="2" relative="1" as="geometry">
            <mxPoint as="offset" />
          </mxGeometry>
        </mxCell>
        <mxCell id="t2NUlBoEFJgihDbQPyKd-19" value="" style="endArrow=open;startArrow=none;endFill=0;startFill=0;endSize=8;html=1;verticalAlign=bottom;labelBackgroundColor=none;strokeWidth=1;rounded=0;exitX=0.5;exitY=0;exitDx=0;exitDy=0;entryX=0.5;entryY=1;entryDx=0;entryDy=0;" edge="1" parent="WIyWlLk6GJQsqaUBKTNV-1" source="-_xqf_EL86_j3DuYt3mu-3" target="gODOM4BEEqSKBqivk2wQ-5">
          <mxGeometry width="160" relative="1" as="geometry">
            <mxPoint x="-30" y="520" as="sourcePoint" />
            <mxPoint x="130" y="520" as="targetPoint" />
          </mxGeometry>
        </mxCell>
        <mxCell id="zspc7C395FXqzY0Dl9mE-1" value="Collects" style="edgeLabel;html=1;align=center;verticalAlign=middle;resizable=0;points=[];" connectable="0" vertex="1" parent="t2NUlBoEFJgihDbQPyKd-19">
          <mxGeometry x="-0.0545" relative="1" as="geometry">
            <mxPoint as="offset" />
          </mxGeometry>
        </mxCell>
        <mxCell id="t2NUlBoEFJgihDbQPyKd-20" value="" style="endArrow=open;startArrow=none;endFill=0;startFill=0;endSize=8;html=1;verticalAlign=bottom;labelBackgroundColor=none;strokeWidth=1;rounded=0;exitX=0;exitY=0.5;exitDx=0;exitDy=0;entryX=1;entryY=0.5;entryDx=0;entryDy=0;" edge="1" parent="WIyWlLk6GJQsqaUBKTNV-1" source="gODOM4BEEqSKBqivk2wQ-5" target="-_xqf_EL86_j3DuYt3mu-4">
          <mxGeometry width="160" relative="1" as="geometry">
            <mxPoint x="-30" y="520" as="sourcePoint" />
            <mxPoint x="130" y="520" as="targetPoint" />
          </mxGeometry>
        </mxCell>
        <mxCell id="zspc7C395FXqzY0Dl9mE-0" value="Pulls" style="edgeLabel;html=1;align=center;verticalAlign=middle;resizable=0;points=[];" connectable="0" vertex="1" parent="t2NUlBoEFJgihDbQPyKd-20">
          <mxGeometry x="-0.3548" y="-2" relative="1" as="geometry">
            <mxPoint x="-19" y="2" as="offset" />
          </mxGeometry>
        </mxCell>
        <mxCell id="t2NUlBoEFJgihDbQPyKd-23" value="" style="endArrow=open;startArrow=none;endFill=0;startFill=0;endSize=8;html=1;verticalAlign=bottom;labelBackgroundColor=none;strokeWidth=1;rounded=0;entryX=0.25;entryY=1;entryDx=0;entryDy=0;" edge="1" parent="WIyWlLk6GJQsqaUBKTNV-1" target="-_xqf_EL86_j3DuYt3mu-6">
          <mxGeometry width="160" relative="1" as="geometry">
            <mxPoint x="40" y="555" as="sourcePoint" />
            <mxPoint x="260" y="550" as="targetPoint" />
            <Array as="points">
              <mxPoint x="391" y="555" />
            </Array>
          </mxGeometry>
        </mxCell>
        <mxCell id="zspc7C395FXqzY0Dl9mE-10" value="Stores" style="edgeLabel;html=1;align=center;verticalAlign=middle;resizable=0;points=[];" connectable="0" vertex="1" parent="t2NUlBoEFJgihDbQPyKd-23">
          <mxGeometry x="-0.0562" relative="1" as="geometry">
            <mxPoint x="-53" as="offset" />
          </mxGeometry>
        </mxCell>
      </root>
    </mxGraphModel>
  </diagram>
</mxfile>
